# xmcd
#
# Track frame offsets:
#      182
#      12087
#      29302
#      40712
#      55835
#      70102
#      87767
#      105745
#      121110
#      132670
#      147880
#      163745
#      182270
#      204812
#      227565
#      249092
# 
# Disc length: 3576 seconds
#
# Revision: 3
# Processed by: cddbd v1.5.1PL0 Copyright (c) Steve Scherf et al.
#
# Submitted via: FreeRIP 1.21
#
DISCID=c10df610
DTITLE=Various Artist - Intimate Portrait: Women of the Heartland
DYEAR=1900
DGENRE=country
TTITLE0=Lucinda Williams - Passionate Kisses
TTITLE1=Rosie Flores - Crying Over You
TTITLE2=Kelly Willis - He Don't Care About Me
TTITLE3=Nanci Griffith - Trouble In The Fields
TTITLE4=Rosanne Cash - Tennessee Flat Top Box
TTITLE5=Carlene Carter - Me and The Wildwood Rose
TTITLE6=Emmylou Harris - Even Cowgirls Get The Blues
TTITLE7=Gillian Welch - I'm Not Afraid To Die
TTITLE8=Victoria Williams - Why Look At The Moon
TTITLE9=Mary-Chapin Carpenter - Down At The Twist And Shout
TTITLE10=Cheri Knight - White Lies
TTITLE11=Katy Moffatt - Burning Memories
TTITLE12=Beth Nielsen Chapman - Beyond The Blue
TTITLE13=Iris Dement - Easy's Gettin' Harder Every Day
TTITLE14=Dar Williams - Iowa (Traveling III)
TTITLE15=Julie Miller - Face of Appalachia
EXTD=
EXTT0=
EXTT1=
EXTT2=
EXTT3=
EXTT4=
EXTT5=
EXTT6=
EXTT7=
EXTT8=
EXTT9=
EXTT10=
EXTT11=
EXTT12=
EXTT13=
EXTT14=
EXTT15=
PLAYORDER=
